<?xml version="1.0" encoding="UTF-8" standalone="no"?>
<!-- Created with Inkscape (http://www.inkscape.org/) -->

<svg
   width="64"
   height="64"
   viewBox="0 0 16.933334 16.933333"
   version="1.1"
   id="svg1"
   xml:space="preserve"
   inkscape:version="1.3.2 (091e20e, 2023-11-25)"
   sodipodi:docname="sync.io.svg"
   xmlns:inkscape="http://www.inkscape.org/namespaces/inkscape"
   xmlns:sodipodi="http://sodipodi.sourceforge.net/DTD/sodipodi-0.dtd"
   xmlns:xlink="http://www.w3.org/1999/xlink"
   xmlns="http://www.w3.org/2000/svg"
   xmlns:svg="http://www.w3.org/2000/svg"><sodipodi:namedview
     id="namedview1"
     pagecolor="#ffffff"
     bordercolor="#000000"
     borderopacity="0.25"
     inkscape:showpageshadow="2"
     inkscape:pageopacity="0.0"
     inkscape:pagecheckerboard="0"
     inkscape:deskcolor="#d1d1d1"
     inkscape:document-units="px"
     inkscape:zoom="8.1265779"
     inkscape:cx="40.669025"
     inkscape:cy="31.070889"
     inkscape:window-width="1280"
     inkscape:window-height="770"
     inkscape:window-x="0"
     inkscape:window-y="34"
     inkscape:window-maximized="0"
     inkscape:current-layer="layer1" /><defs
     id="defs1"><linearGradient
       id="linearGradient14"
       inkscape:collect="always"><stop
         style="stop-color:#000000;stop-opacity:1;"
         offset="0"
         id="stop2" /><stop
         style="stop-color:#351762;stop-opacity:1;"
         offset="0.19999999"
         id="stop14" /><stop
         style="stop-color:#5928a9;stop-opacity:1;"
         offset="0.6073041"
         id="stop13" /><stop
         style="stop-color:#7936dd;stop-opacity:1;"
         offset="1"
         id="stop12" /></linearGradient><linearGradient
       id="linearGradient7"
       inkscape:collect="always"><stop
         style="stop-color:#7936dd;stop-opacity:1;"
         offset="0"
         id="stop7" /><stop
         style="stop-color:#5928a9;stop-opacity:1;"
         offset="0.43950441"
         id="stop9" /><stop
         style="stop-color:#351762;stop-opacity:1;"
         offset="0.78085101"
         id="stop8" /><stop
         style="stop-color:#000000;stop-opacity:1;"
         offset="0.99787235"
         id="stop1" /></linearGradient><linearGradient
       inkscape:collect="always"
       xlink:href="#linearGradient7"
       id="linearGradient8"
       x1="5.7790475"
       y1="7.8295973"
       x2="11.430411"
       y2="7.8295973"
       gradientUnits="userSpaceOnUse" /><linearGradient
       inkscape:collect="always"
       xlink:href="#linearGradient14"
       id="linearGradient11"
       x1="5.7749462"
       y1="9.8265781"
       x2="11.413378"
       y2="9.8265781"
       gradientUnits="userSpaceOnUse" /></defs><g
     inkscape:label="Layer 1"
     inkscape:groupmode="layer"
     id="layer1"><rect
       style="fill:#ffffff;stroke-width:0.262288"
       id="rect2"
       width="16.933334"
       height="16.933334"
       x="1.3877788e-17"
       y="6.9388939e-18"
       ry="2.8016133" /><g
       id="g2"
       transform="matrix(1.2707083,0,0,1.2707083,-2.4648283,-2.7623159)"><path
         style="display:inline;fill:url(#linearGradient11);fill-opacity:1;stroke-width:0.264583"
         d="M 6.2627715,8.7984763 6.9151473,9.50048 c 0,0 -0.2657615,0.524695 -0.2165096,0.973915 0.043565,0.39735 0.1907103,0.80215 0.4376589,1.116477 0.2089824,0.266002 0.50985,0.475179 0.8303239,0.583471 0.3617011,0.122223 0.7753848,0.142449 1.1445005,0.04488 0.3573505,-0.09446 0.6928085,-0.312137 0.941824,-0.585291 0.208472,-0.22868 0.328324,-0.533315 0.415162,-0.830324 0.02461,-0.08419 0.06124,-0.297293 0.03554,-0.520694 C 10.466746,9.9621684 10.381103,9.5998931 10.154571,9.3277405 9.5885458,8.6477263 8.7465168,7.9358271 8.3256794,7.4841351 8.2335403,7.3852406 8.2199601,7.226497 8.224694,7.0914143 8.2292506,6.9613911 8.2841922,6.8344482 8.3481206,6.7211347 8.4133047,6.6055956 8.6061944,6.4181788 8.6061944,6.4181788 l 2.3114416,2.3675449 c 0,0 0.315809,0.5262398 0.392721,0.8191032 0.09998,0.3806835 0.129393,0.7878671 0.07854,1.1781621 -0.06417,0.492504 -0.150962,0.830925 -0.516147,1.312809 -0.261461,0.345014 -0.602814,0.647469 -0.9906728,0.839723 -0.4142477,0.205335 -0.892162,0.307387 -1.354431,0.298976 C 8.0988347,13.226696 7.6585431,13.11726 7.2821643,12.911641 6.8484902,12.674721 6.4755923,12.310977 6.1937669,11.905048 6.0139329,11.646023 5.9008488,11.33816 5.834708,11.029842 5.7640633,10.70053 5.7603772,10.354329 5.8010461,10.019989 5.8689164,9.4620251 6.2627715,8.7984763 6.2627715,8.7984763 Z"
         id="path2"
         sodipodi:nodetypes="ccsaaaassssaaccassaaaaasc" /><path
         style="display:inline;fill:url(#linearGradient8);fill-opacity:1;stroke-width:0.264583"
         d="m 10.274742,8.1292952 c 0,0 0.13344,0.1329511 0.334592,0.3426972 0.261521,0.2726939 0.34318,0.3710502 0.34318,0.3710502 0,0 0.504892,-0.7539065 0.476764,-1.738519 C 11.40115,6.1199111 10.857411,5.5543671 10.704445,5.3638226 10.021721,4.5133785 9.031145,4.4440123 8.6184871,4.4387913 8.1790833,4.4332319 7.7403648,4.5511904 7.4109865,4.7036485 6.8249835,4.9748895 6.4985092,5.3788623 6.421424,5.4666011 5.8528118,6.1137985 5.7848557,7.0412063 5.7799362,7.2748142 c -0.012175,0.5781533 0.1037335,0.751916 0.1650822,0.946089 0.1863046,0.5896621 0.9332047,1.294159 0.9332047,1.294159 l 1.7167506,1.7055298 c 0,0 0.197643,-0.160638 0.2580735,-0.269294 0.073192,-0.131602 0.1245729,-0.287525 0.1122061,-0.437603 C 8.9497095,10.325063 8.858693,10.226749 8.7354427,10.083904 8.1977043,9.4606751 7.2878201,8.7635975 7.0128701,8.314459 6.7297156,7.8519183 6.5686844,7.2569849 6.8000702,6.6195231 6.9468826,6.215059 7.2543703,5.8503162 7.6187821,5.6215168 7.9283981,5.4271215 8.3202149,5.3356164 8.6847383,5.363443 c 0.416786,0.031816 0.8541212,0.1916306 1.1598735,0.476654 0.3544232,0.3303945 0.6016862,0.6904798 0.6454062,1.3024737 0.03787,0.5301388 -0.215276,0.9867245 -0.215276,0.9867245 z"
         id="path1"
         sodipodi:nodetypes="csczssssssccassssaaasc" /></g></g></svg>
